ply
format ascii 1.0
comment Created by Blender 2.79 (sub 0) - www.blender.org, source file: ''
element vertex 48
property float x
property float y
property float z
property float nx
property float ny
property float nz
element face 28
property list uchar uint vertex_indices
end_header
-0.100000 -0.100000 0.000000 -1.000000 -0.000000 -0.000000
-0.100000 -0.100000 0.300000 -1.000000 -0.000000 -0.000000
-0.100000 -0.000000 0.213525 -1.000000 -0.000000 -0.000000
-0.100000 -0.000000 0.173525 -1.000000 -0.000000 0.000000
-0.100000 0.100000 0.173525 -1.000000 -0.000000 0.000000
-0.100000 0.100000 0.000000 -1.000000 -0.000000 0.000000
-0.100000 0.100000 0.213525 -1.000000 0.000000 -0.000000
-0.100000 0.100000 0.300000 -1.000000 0.000000 -0.000000
0.100000 -0.100000 0.000000 1.000000 0.000000 0.000000
0.100000 0.100000 0.000000 1.000000 0.000000 0.000000
0.100000 0.100000 0.173525 1.000000 0.000000 0.000000
0.100000 -0.000000 0.173525 1.000000 -0.000000 0.000000
0.100000 -0.000000 0.213525 1.000000 0.000000 0.000000
0.100000 -0.100000 0.300000 1.000000 0.000000 0.000000
0.100000 0.100000 0.213525 1.000000 0.000000 0.000000
0.100000 0.100000 0.300000 1.000000 0.000000 0.000000
0.100000 0.100000 0.213525 -0.000000 1.000000 0.000000
-0.100000 0.100000 0.213525 -0.000000 1.000000 0.000000
0.100000 0.100000 0.300000 -0.000000 1.000000 0.000000
-0.100000 0.100000 0.300000 -0.000000 1.000000 0.000000
0.100000 0.100000 0.000000 -0.000000 1.000000 0.000000
-0.100000 0.100000 0.000000 -0.000000 1.000000 0.000000
0.100000 0.100000 0.173525 -0.000000 1.000000 0.000000
-0.100000 0.100000 0.173525 -0.000000 1.000000 0.000000
-0.100000 0.100000 0.173525 0.000000 -0.000000 1.000000
-0.100000 -0.000000 0.173525 0.000000 -0.000000 1.000000
0.100000 0.100000 0.173525 0.000000 -0.000000 1.000000
0.100000 -0.000000 0.173525 0.000000 -0.000000 1.000000
0.100000 0.100000 0.213525 0.000000 0.000000 -1.000000
0.100000 -0.000000 0.213525 0.000000 0.000000 -1.000000
-0.100000 0.100000 0.213525 0.000000 0.000000 -1.000000
-0.100000 -0.000000 0.213525 0.000000 0.000000 -1.000000
0.100000 -0.000000 0.173525 -0.000000 1.000000 0.000000
-0.100000 -0.000000 0.173525 -0.000000 1.000000 0.000000
0.100000 -0.000000 0.213525 -0.000000 1.000000 0.000000
-0.100000 -0.000000 0.213525 -0.000000 1.000000 0.000000
-0.100000 -0.100000 0.300000 0.000000 0.000000 1.000000
0.100000 -0.100000 0.300000 0.000000 0.000000 1.000000
-0.100000 0.100000 0.300000 0.000000 0.000000 1.000000
0.100000 0.100000 0.300000 0.000000 0.000000 1.000000
0.100000 -0.100000 0.000000 0.000000 -0.000000 -1.000000
-0.100000 -0.100000 0.000000 0.000000 -0.000000 -1.000000
0.100000 0.100000 0.000000 0.000000 -0.000000 -1.000000
-0.100000 0.100000 0.000000 0.000000 0.000000 -1.000000
-0.100000 -0.100000 0.000000 -0.000000 -1.000000 -0.000000
0.100000 -0.100000 0.000000 -0.000000 -1.000000 -0.000000
-0.100000 -0.100000 0.300000 -0.000000 -1.000000 -0.000000
0.100000 -0.100000 0.300000 -0.000000 -1.000000 -0.000000
3 0 1 2
3 0 2 3
3 0 3 4
3 0 4 5
3 6 2 7
3 7 2 1
3 8 9 10
3 8 10 11
3 8 11 12
3 8 12 13
3 12 14 13
3 13 14 15
3 16 17 18
3 18 17 19
3 20 21 22
3 22 21 23
3 24 25 26
3 26 25 27
3 28 29 30
3 30 29 31
3 32 33 34
3 34 33 35
3 36 37 38
3 38 37 39
3 40 41 42
3 42 41 43
3 44 45 46
3 46 45 47
