# Blender v2.79 (sub 0) OBJ File: ''
# www.blender.org
mtllib box2.mtl
o Object_To_Grasp_2
v -0.100000 0.000000 0.100000
v -0.100000 0.300000 0.100000
v -0.100000 0.213525 0.000000
v -0.100000 0.173525 0.000000
v -0.100000 0.173525 -0.100000
v -0.100000 0.000000 -0.100000
v -0.100000 0.213525 -0.100000
v -0.100000 0.300000 -0.100000
v 0.100000 0.000000 0.100000
v 0.100000 0.000000 -0.100000
v 0.100000 0.173525 -0.100000
v 0.100000 0.173525 0.000000
v 0.100000 0.213525 0.000000
v 0.100000 0.300000 0.100000
v 0.100000 0.213525 -0.100000
v 0.100000 0.300000 -0.100000
vn -1.0000 0.0000 0.0000
vn 1.0000 0.0000 0.0000
vn 0.0000 0.0000 -1.0000
vn 0.0000 1.0000 0.0000
vn 0.0000 -1.0000 0.0000
vn 0.0000 0.0000 1.0000
usemtl None
s off
f 1//1 2//1 3//1
f 1//1 3//1 4//1
f 1//1 4//1 5//1
f 1//1 5//1 6//1
f 7//1 3//1 8//1
f 8//1 3//1 2//1
f 9//2 10//2 11//2
f 9//2 11//2 12//2
f 9//2 12//2 13//2
f 9//2 13//2 14//2
f 13//2 15//2 14//2
f 14//2 15//2 16//2
f 15//3 7//3 16//3
f 16//3 7//3 8//3
f 10//3 6//3 11//3
f 11//3 6//3 5//3
f 5//4 4//4 11//4
f 11//4 4//4 12//4
f 15//5 13//5 7//5
f 7//5 13//5 3//5
f 12//3 4//3 13//3
f 13//3 4//3 3//3
f 2//4 14//4 8//4
f 8//4 14//4 16//4
f 9//5 1//5 10//5
f 10//5 1//5 6//5
f 1//6 9//6 2//6
f 2//6 9//6 14//6
