solid CATIA STL
  facet normal -1.000000e+000  0.000000e+000  0.000000e+000
    outer loop
      vertex -1.000000e+002 -1.000000e+002  0.000000e+000
      vertex -1.000000e+002 -1.000000e+002  3.000000e+002
      vertex -1.000000e+002 -2.842171e-014  2.135247e+002
    endloop
  endfacet
  facet normal -1.000000e+000  0.000000e+000  -0.000000e+000
    outer loop
      vertex -1.000000e+002 -1.000000e+002  0.000000e+000
      vertex -1.000000e+002 -2.842171e-014  2.135247e+002
      vertex -1.000000e+002 -2.842171e-014  1.735247e+002
    endloop
  endfacet
  facet normal -1.000000e+000  0.000000e+000  -0.000000e+000
    outer loop
      vertex -1.000000e+002 -1.000000e+002  0.000000e+000
      vertex -1.000000e+002 -2.842171e-014  1.735247e+002
      vertex -1.000000e+002  1.000000e+002  1.735247e+002
    endloop
  endfacet
  facet normal -1.000000e+000  0.000000e+000  -0.000000e+000
    outer loop
      vertex -1.000000e+002 -1.000000e+002  0.000000e+000
      vertex -1.000000e+002  1.000000e+002  1.735247e+002
      vertex -1.000000e+002  1.000000e+002  0.000000e+000
    endloop
  endfacet
  facet normal -1.000000e+000  0.000000e+000  0.000000e+000
    outer loop
      vertex -1.000000e+002  1.000000e+002  2.135247e+002
      vertex -1.000000e+002 -2.842171e-014  2.135247e+002
      vertex -1.000000e+002  1.000000e+002  3.000000e+002
    endloop
  endfacet
  facet normal -1.000000e+000  -0.000000e+000  0.000000e+000
    outer loop
      vertex -1.000000e+002  1.000000e+002  3.000000e+002
      vertex -1.000000e+002 -2.842171e-014  2.135247e+002
      vertex -1.000000e+002 -1.000000e+002  3.000000e+002
    endloop
  endfacet
  facet normal  1.000000e+000  0.000000e+000  -0.000000e+000
    outer loop
      vertex  1.000000e+002 -1.000000e+002  0.000000e+000
      vertex  1.000000e+002  1.000000e+002  0.000000e+000
      vertex  1.000000e+002  1.000000e+002  1.735247e+002
    endloop
  endfacet
  facet normal  1.000000e+000  0.000000e+000  0.000000e+000
    outer loop
      vertex  1.000000e+002 -1.000000e+002  0.000000e+000
      vertex  1.000000e+002  1.000000e+002  1.735247e+002
      vertex  1.000000e+002 -2.842171e-014  1.735247e+002
    endloop
  endfacet
  facet normal  1.000000e+000  0.000000e+000  -0.000000e+000
    outer loop
      vertex  1.000000e+002 -1.000000e+002  0.000000e+000
      vertex  1.000000e+002 -2.842171e-014  1.735247e+002
      vertex  1.000000e+002 -2.842171e-014  2.135247e+002
    endloop
  endfacet
  facet normal  1.000000e+000  0.000000e+000  0.000000e+000
    outer loop
      vertex  1.000000e+002 -1.000000e+002  0.000000e+000
      vertex  1.000000e+002 -2.842171e-014  2.135247e+002
      vertex  1.000000e+002 -1.000000e+002  3.000000e+002
    endloop
  endfacet
  facet normal  1.000000e+000  0.000000e+000  0.000000e+000
    outer loop
      vertex  1.000000e+002 -2.842171e-014  2.135247e+002
      vertex  1.000000e+002  1.000000e+002  2.135247e+002
      vertex  1.000000e+002 -1.000000e+002  3.000000e+002
    endloop
  endfacet
  facet normal  1.000000e+000  -0.000000e+000  0.000000e+000
    outer loop
      vertex  1.000000e+002 -1.000000e+002  3.000000e+002
      vertex  1.000000e+002  1.000000e+002  2.135247e+002
      vertex  1.000000e+002  1.000000e+002  3.000000e+002
    endloop
  endfacet
  facet normal  0.000000e+000  1.000000e+000  0.000000e+000
    outer loop
      vertex  1.000000e+002  1.000000e+002  2.135247e+002
      vertex -1.000000e+002  1.000000e+002  2.135247e+002
      vertex  1.000000e+002  1.000000e+002  3.000000e+002
    endloop
  endfacet
  facet normal  0.000000e+000  1.000000e+000  0.000000e+000
    outer loop
      vertex  1.000000e+002  1.000000e+002  3.000000e+002
      vertex -1.000000e+002  1.000000e+002  2.135247e+002
      vertex -1.000000e+002  1.000000e+002  3.000000e+002
    endloop
  endfacet
  facet normal  0.000000e+000  1.000000e+000  0.000000e+000
    outer loop
      vertex  1.000000e+002  1.000000e+002  0.000000e+000
      vertex -1.000000e+002  1.000000e+002  0.000000e+000
      vertex  1.000000e+002  1.000000e+002  1.735247e+002
    endloop
  endfacet
  facet normal  0.000000e+000  1.000000e+000  0.000000e+000
    outer loop
      vertex  1.000000e+002  1.000000e+002  1.735247e+002
      vertex -1.000000e+002  1.000000e+002  0.000000e+000
      vertex -1.000000e+002  1.000000e+002  1.735247e+002
    endloop
  endfacet
  facet normal  0.000000e+000  0.000000e+000  1.000000e+000
    outer loop
      vertex -1.000000e+002  1.000000e+002  1.735247e+002
      vertex -1.000000e+002 -2.842171e-014  1.735247e+002
      vertex  1.000000e+002  1.000000e+002  1.735247e+002
    endloop
  endfacet
  facet normal  0.000000e+000  0.000000e+000  1.000000e+000
    outer loop
      vertex  1.000000e+002  1.000000e+002  1.735247e+002
      vertex -1.000000e+002 -2.842171e-014  1.735247e+002
      vertex  1.000000e+002 -2.842171e-014  1.735247e+002
    endloop
  endfacet
  facet normal  0.000000e+000  0.000000e+000 -1.000000e+000
    outer loop
      vertex  1.000000e+002  1.000000e+002  2.135247e+002
      vertex  1.000000e+002 -2.842171e-014  2.135247e+002
      vertex -1.000000e+002  1.000000e+002  2.135247e+002
    endloop
  endfacet
  facet normal  0.000000e+000  0.000000e+000 -1.000000e+000
    outer loop
      vertex -1.000000e+002  1.000000e+002  2.135247e+002
      vertex  1.000000e+002 -2.842171e-014  2.135247e+002
      vertex -1.000000e+002 -2.842171e-014  2.135247e+002
    endloop
  endfacet
  facet normal  0.000000e+000  1.000000e+000  0.000000e+000
    outer loop
      vertex  1.000000e+002 -2.842171e-014  1.735247e+002
      vertex -1.000000e+002 -2.842171e-014  1.735247e+002
      vertex  1.000000e+002 -2.842171e-014  2.135247e+002
    endloop
  endfacet
  facet normal  0.000000e+000  1.000000e+000  0.000000e+000
    outer loop
      vertex  1.000000e+002 -2.842171e-014  2.135247e+002
      vertex -1.000000e+002 -2.842171e-014  1.735247e+002
      vertex -1.000000e+002 -2.842171e-014  2.135247e+002
    endloop
  endfacet
  facet normal  0.000000e+000  0.000000e+000  1.000000e+000
    outer loop
      vertex -1.000000e+002 -1.000000e+002  3.000000e+002
      vertex  1.000000e+002 -1.000000e+002  3.000000e+002
      vertex -1.000000e+002  1.000000e+002  3.000000e+002
    endloop
  endfacet
  facet normal  -0.000000e+000  0.000000e+000  1.000000e+000
    outer loop
      vertex -1.000000e+002  1.000000e+002  3.000000e+002
      vertex  1.000000e+002 -1.000000e+002  3.000000e+002
      vertex  1.000000e+002  1.000000e+002  3.000000e+002
    endloop
  endfacet
  facet normal  0.000000e+000  0.000000e+000 -1.000000e+000
    outer loop
      vertex  1.000000e+002 -1.000000e+002  0.000000e+000
      vertex -1.000000e+002 -1.000000e+002  0.000000e+000
      vertex  1.000000e+002  1.000000e+002  0.000000e+000
    endloop
  endfacet
  facet normal  -0.000000e+000  0.000000e+000 -1.000000e+000
    outer loop
      vertex  1.000000e+002  1.000000e+002  0.000000e+000
      vertex -1.000000e+002 -1.000000e+002  0.000000e+000
      vertex -1.000000e+002  1.000000e+002  0.000000e+000
    endloop
  endfacet
  facet normal  0.000000e+000 -1.000000e+000  0.000000e+000
    outer loop
      vertex -1.000000e+002 -1.000000e+002  0.000000e+000
      vertex  1.000000e+002 -1.000000e+002  0.000000e+000
      vertex -1.000000e+002 -1.000000e+002  3.000000e+002
    endloop
  endfacet
  facet normal  0.000000e+000 -1.000000e+000  0.000000e+000
    outer loop
      vertex -1.000000e+002 -1.000000e+002  3.000000e+002
      vertex  1.000000e+002 -1.000000e+002  0.000000e+000
      vertex  1.000000e+002 -1.000000e+002  3.000000e+002
    endloop
  endfacet
endsolid CATIA STL
